<?xml version="1.0" encoding="iso-8859-1"?>
<!-- Generator: Adobe Illustrator 19.0.0, SVG Export Plug-In . SVG Version: 6.00 Build 0)  -->
<svg version="1.1" id="Layer_1" xmlns="http://www.w3.org/2000/svg" xmlns:xlink="http://www.w3.org/1999/xlink" x="0px" y="0px"
	 viewBox="0 0 512 512" style="enable-background:new 0 0 512 512;" xml:space="preserve">
<g>
	<g>
		<g>
			<path d="M309.621,444.083c-28.459-8.422-61.261-17.417-90.359-17.417h-22.997c-58.18,0-130.782,67.703-133.845,70.579
				c-3.43,3.234-3.593,8.636-0.367,12.075c1.681,1.783,3.942,2.679,6.221,2.679c2.091,0,4.19-0.768,5.837-2.321
				c0.708-0.657,70.741-65.946,122.155-65.946h22.997c25.54,0,56.2,8.03,85.521,16.717c4.514,1.357,9.259-1.246,10.598-5.76
				C316.721,450.167,314.144,445.423,309.621,444.083z"/>
			<path d="M478.409,281.625c-4.625-0.486-8.755,3.268-9.062,7.97c-0.009,0.29-1.997,29.022-15.019,57.114
				c-16.58,35.755-42.82,53.99-77.969,54.298c-15.334-0.179-28.416-0.896-39.782-1.988c69.222-40.653,89.088-185.958,90.018-193.118
				c0.614-4.668-2.688-8.951-7.356-9.557c-4.702-0.64-8.951,2.679-9.566,7.347c-0.247,1.894-25.694,188.843-111.002,188.843
				c-0.444,0-0.819,0.188-1.246,0.247c-5.854-1.365-11.127-2.799-16.051-4.233c73.438-41.941,76.902-217.839,77.03-226.295
				c0.06-4.71-3.703-8.585-8.414-8.653c-4.864,0-8.593,3.703-8.653,8.405c-0.034,2.193-4.19,218.47-93.867,218.47
				c-0.06,0-0.102,0.026-0.154,0.026c-6.946-1.263-13.918-2.278-20.924-3.046c66.637-55.714,47.565-225.348,46.618-233.387
				c-0.555-4.685-4.847-8.047-9.481-7.475c-4.676,0.555-8.03,4.796-7.475,9.472c0.068,0.529,6.153,53.069,0.913,108.058
				c-4.617,48.623-19.209,108.954-62.225,121.387c-0.358-0.009-0.725-0.043-1.084-0.043h-13.457
				c49.715-72.329,9.003-201.566,7.117-207.42c-1.442-4.48-6.272-6.912-10.735-5.504c-4.489,1.451-6.955,6.246-5.513,10.744
				c0.461,1.425,44.8,142.302-13.824,203.418c-5.35,0.947-10.769,2.458-16.188,4.326c34.586-75.238-11.665-175.189-13.875-179.874
				c-2.014-4.258-7.108-6.093-11.358-4.07c-4.267,2.005-6.093,7.1-4.079,11.358c0.555,1.178,54.426,117.427,1.877,185.19
				c-1.903,1.067-3.789,2.159-5.666,3.285c14.746-61.747-29.713-156.86-31.983-161.647c-2.014-4.25-7.108-6.067-11.366-4.045
				c-4.258,2.014-6.076,7.108-4.053,11.366c17.067,35.994,53.606,137.173,18.953,173.901c-4.113,3.174-8.047,6.332-11.725,9.404
				c7.228-57.335-41.105-128.333-43.699-132.079c-2.679-3.883-7.987-4.847-11.861-2.176c-3.874,2.671-4.855,7.987-2.185,11.861
				c0.717,1.05,70.801,104.021,27.179,150.648c-0.375,0.384-0.623,0.648-0.759,0.794c-3.217,3.405-3.081,8.772,0.307,12.015
				c1.647,1.579,3.772,2.372,5.905,2.372c2.219,0,4.446-0.862,6.11-2.586c0.205-0.205,0.41-0.41,0.606-0.623
				c4.514-4.668,37.555-38.153,73.651-58.308c0.051-0.017,0.094-0.051,0.145-0.068c15.974-8.909,32.529-15.215,47.488-15.215h22.989
				c27.213,0,54.289,3.934,80.469,11.682c21.564,6.383,48.887,13.15,100.992,13.85c0.119,0.008,0.222,0.068,0.35,0.068
				c0.486,0,0.939-0.051,1.417-0.06c2.347,0.026,4.668,0.06,7.117,0.06c1.178,0,2.304-0.239,3.319-0.674
				c90.581-9.412,98.978-125.568,99.063-126.788C486.677,285.968,483.11,281.915,478.409,281.625z"/>
			<path d="M413.216,25.6c-11.409,0-20.685,9.276-20.685,20.685V51.2h-8.533v-8.533c0-4.719-3.823-8.533-8.533-8.533
				s-8.533,3.814-8.533,8.533V51.2h-8.533v-8.533c0-4.719-3.823-8.533-8.533-8.533c-4.71,0-8.533,3.814-8.533,8.533V51.2h-8.533
				V34.133c0-4.719-3.823-8.533-8.533-8.533s-8.533,3.814-8.533,8.533V51.2h-8.533V25.6c0-4.719-3.823-8.533-8.533-8.533
				s-8.533,3.814-8.533,8.533v25.6h-8.533V17.067c0-4.719-3.823-8.533-8.533-8.533c-4.71,0-8.533,3.814-8.533,8.533V51.2h-8.533
				V8.533c0-4.719-3.823-8.533-8.533-8.533s-8.533,3.814-8.533,8.533V51.2h-8.533V8.533c0-4.719-3.823-8.533-8.533-8.533
				c-4.71,0-8.533,3.814-8.533,8.533V51.2h-8.533V8.533c0-4.719-3.823-8.533-8.533-8.533s-8.533,3.814-8.533,8.533V51.2h-8.533
				V8.533c0-4.719-3.823-8.533-8.533-8.533c-4.71,0-8.533,3.814-8.533,8.533V51.2h-8.533V17.067c0-4.719-3.823-8.533-8.533-8.533
				s-8.533,3.814-8.533,8.533V51.2h-8.533V25.6c0-4.719-3.823-8.533-8.533-8.533s-8.533,3.814-8.533,8.533v25.6h-8.533V34.133
				c0-4.719-3.823-8.533-8.533-8.533c-4.71,0-8.533,3.814-8.533,8.533V51.2h-8.533v-8.533c0-4.719-3.823-8.533-8.533-8.533
				s-8.533,3.814-8.533,8.533V51.2c-4.71,0-8.533,3.814-8.533,8.533s3.823,8.533,8.533,8.533V76.8c0,4.719,3.823,8.533,8.533,8.533
				s8.533-3.814,8.533-8.533v-8.533h8.533v17.067c0,4.719,3.823,8.533,8.533,8.533c4.71,0,8.533-3.814,8.533-8.533V68.267h8.533
				v25.6c0,4.719,3.823,8.533,8.533,8.533s8.533-3.814,8.533-8.533v-25.6h8.533V102.4c0,4.719,3.823,8.533,8.533,8.533
				s8.533-3.814,8.533-8.533V68.267h8.533v42.667c0,4.719,3.823,8.533,8.533,8.533c4.71,0,8.533-3.814,8.533-8.533V68.267h8.533
				v42.667c0,4.719,3.823,8.533,8.533,8.533s8.533-3.814,8.533-8.533V68.267h8.533v42.667c0,4.719,3.823,8.533,8.533,8.533
				c4.71,0,8.533-3.814,8.533-8.533V68.267h8.533v42.667c0,4.719,3.823,8.533,8.533,8.533s8.533-3.814,8.533-8.533V68.267h8.533
				V102.4c0,4.719,3.823,8.533,8.533,8.533c4.71,0,8.533-3.814,8.533-8.533V68.267h8.533v25.6c0,4.719,3.823,8.533,8.533,8.533
				s8.533-3.814,8.533-8.533v-25.6h8.533v17.067c0,4.719,3.823,8.533,8.533,8.533s8.533-3.814,8.533-8.533V68.267h8.533V76.8
				c0,4.719,3.823,8.533,8.533,8.533c4.71,0,8.533-3.814,8.533-8.533v-8.533h8.533V76.8c0,4.719,3.823,8.533,8.533,8.533
				s8.533-3.814,8.533-8.533v-8.533h8.533v4.915c0,11.409,9.276,20.685,20.685,20.685h90.249V25.6H413.216z"/>
		</g>
	</g>
</g>
<g>
</g>
<g>
</g>
<g>
</g>
<g>
</g>
<g>
</g>
<g>
</g>
<g>
</g>
<g>
</g>
<g>
</g>
<g>
</g>
<g>
</g>
<g>
</g>
<g>
</g>
<g>
</g>
<g>
</g>
</svg>
