<?xml version="1.0" encoding="iso-8859-1"?>
<!-- Generator: Adobe Illustrator 16.0.0, SVG Export Plug-In . SVG Version: 6.00 Build 0)  -->
<!DOCTYPE svg PUBLIC "-//W3C//DTD SVG 1.1//EN" "http://www.w3.org/Graphics/SVG/1.1/DTD/svg11.dtd">
<svg version="1.1" id="Capa_1" xmlns="http://www.w3.org/2000/svg" xmlns:xlink="http://www.w3.org/1999/xlink" x="0px" y="0px"
	 width="466.677px" height="466.677px" viewBox="0 0 466.677 466.677" style="enable-background:new 0 0 466.677 466.677;"
	 xml:space="preserve">
<g>
	<g>
		<path d="M297.517,217.975c-18.414-5.282-37.213-9.426-55.983-11.672c-33.687-5.574-93.419-10.441-149.794,10.197
			C26.801,240.278,0,232.64,0,232.64s123.417,173.521,244.159,195.418c63.662,14.972,132.076,2.36,186.201-46.446l22.401-12.05
			l-13.449-19.172C418.141,276.341,364.168,237.08,297.517,217.975z M320.7,323.372c-2.853,30.352-29.117,45.753-59.478,42.899
			c-30.343-2.842-53.283-22.883-50.432-53.235c2.847-30.344,24.445,4.036,54.796,6.877
			C295.938,322.774,323.557,293.02,320.7,323.372z M257.719,274.345c-0.897,9.506-9.329,16.499-18.831,15.602
			c-9.512-0.898-16.495-9.33-15.601-18.835c0.896-9.506,9.325-16.491,18.831-15.593
			C251.625,256.407,258.601,264.839,257.719,274.345z M241.797,395.79c-58.955-16.899-101.518-65.878-119.208-127.725
			c35.197-31.727,76.891-37.019,119.962-30.865c-27.721,9.249-48.814,34.079-51.724,65.036
			c-3.934,41.834,26.793,78.938,68.627,82.874c41.833,3.932,78.938-26.794,82.865-68.631c1.96-20.875-4.708-40.563-17.067-55.552
			c40.647,19.075,70.715,49.521,84.545,97.901C362.037,401.905,300.751,412.693,241.797,395.79z"/>
		<path d="M293.041,106.031C213.532,74.29,115.33,92.211,45.883,36.584C29.515,23.468,6.091,46.577,22.638,59.829
			c56.547,45.296,124.25,48.5,193.16,59.066c79.327,12.17,170.808,55.723,219.331,121.167c12.479,16.827,41.032,0.469,28.389-16.591
			C420.822,165.904,358.466,132.138,293.041,106.031z"/>
	</g>
</g>
<g>
</g>
<g>
</g>
<g>
</g>
<g>
</g>
<g>
</g>
<g>
</g>
<g>
</g>
<g>
</g>
<g>
</g>
<g>
</g>
<g>
</g>
<g>
</g>
<g>
</g>
<g>
</g>
<g>
</g>
</svg>
