<?xml version="1.0" encoding="iso-8859-1"?>
<!-- Generator: Adobe Illustrator 19.0.0, SVG Export Plug-In . SVG Version: 6.00 Build 0)  -->
<svg version="1.1" id="Capa_1" xmlns="http://www.w3.org/2000/svg" xmlns:xlink="http://www.w3.org/1999/xlink" x="0px" y="0px"
	 viewBox="0 0 512.131 512.131" style="enable-background:new 0 0 512.131 512.131;" xml:space="preserve">
<g transform="translate(0 -1)">
	<g>
		<g>
			<path d="M27.494,513.131h109.714V403.416H27.494V513.131z M45.78,425.999c0-5.049,4.093-9.143,9.143-9.143
				c5.049,0,9.143,4.093,9.143,9.143v60.343c0,5.049-4.093,9.143-9.143,9.143c-5.049,0-9.143-4.093-9.143-9.143V425.999z"/>
			<path d="M189.14,108.011c21.381-8.361,43.991-13.149,66.926-14.171c22.935,1.022,45.545,5.81,66.926,14.171
				c19.484,7.767,40.123,12.247,61.074,13.257c36.191-1.8,72.211-6.139,107.794-12.983c-37.029-18.011-103.04-51.566-123.429-71.954
				c-2.011-2.103-4.114-4.206-6.126-6.4c-8.309-9.894-18.503-18.037-29.989-23.954c-24.598-11.249-53.724-2.86-68.571,19.749h-0.091
				c-0.257,0.349-0.565,0.657-0.914,0.914c-0.428,0.657-0.989,1.218-1.646,1.646c-0.991,0.679-2.111,1.146-3.291,1.371
				c-0.578,0.046-1.159,0.046-1.737,0c-0.578,0.046-1.159,0.046-1.737,0c-1.18-0.225-2.301-0.692-3.291-1.371
				c-0.551-0.385-1.043-0.847-1.463-1.371c-0.412-0.351-0.78-0.75-1.097-1.189h-0.091c-14.839-22.62-43.974-31.011-68.571-19.749
				c-11.486,5.917-21.68,14.06-29.989,23.954c-2.011,2.195-4.114,4.297-6.126,6.4c-20.389,20.389-86.4,53.943-123.429,71.954
				c35.583,6.844,71.603,11.182,107.794,12.983C149.017,120.258,169.655,115.778,189.14,108.011z M310.923,20.696
				c20.674,0.542,38.782,14.004,45.257,33.646c1.57,4.794-0.993,9.961-5.76,11.611c-0.951,0.279-1.935,0.433-2.926,0.457
				c-3.934,0.021-7.437-2.487-8.686-6.217c-3.963-12.232-15.129-20.698-27.977-21.211c-5.049-0.025-9.122-4.139-9.097-9.189
				C301.759,24.744,305.873,20.671,310.923,20.696z"/>
			<path d="M36.637,205.291v179.84h91.429V242.959c-0.073-0.423-0.103-0.851-0.091-1.28c0.017-0.282,0.079-0.56,0.183-0.823v-0.366
				c-0.091-0.64-0.091-1.371-0.183-2.011c-0.092-0.545-0.092-1.101,0-1.646c-1.1-12.418-5.008-24.423-11.429-35.109
				c-16.457-28.251-46.171-43.154-64.731-32.64c-1.257,0.685-2.45,1.481-3.566,2.377c0,0.091,0,0.183-0.091,0.183
				c-0.024,0-0.048,0.009-0.065,0.026c-0.017,0.017-0.027,0.041-0.026,0.065c-7.971,7.568-12.159,18.291-11.429,29.257
				c-0.065,0.717-0.218,1.424-0.457,2.103C36.428,203.805,36.582,204.542,36.637,205.291z"/>
			<path d="M427.311,136.445c-0.611,0.733-1.318,1.378-2.103,1.92c-2.743,1.554-66.651,37.76-114.286,37.76H201.208
				c-47.634,0-111.543-36.206-114.286-37.76c-0.785-0.542-1.492-1.188-2.103-1.92c-22.949-2.651-46.994-6.491-65.371-9.783
				c7.406,7.406,15.817,16.274,24.411,25.966c27.52-14.537,66.926,3.017,88.503,39.771c8.117,13.521,12.882,28.788,13.897,44.526
				v0.64c0.091,1.097,0.183,2.194,0.183,3.291v0.274c0,0.091-0.091,0.183-0.091,0.366v43.611c11.409,2.82,23.293,3.132,34.834,0.914
				c17.92-3.646,36.017-6.362,54.217-8.137c12.8-1.189,20.023-1.189,20.663-1.189c25.221,0.84,50.314,3.961,74.971,9.326
				c40.485,9.023,80.639-16.41,89.783-56.869c6.491-32.64,46.08-76.617,71.863-102.4
				C474.305,129.954,450.26,133.794,427.311,136.445z"/>
		</g>
	</g>
</g>
<g>
</g>
<g>
</g>
<g>
</g>
<g>
</g>
<g>
</g>
<g>
</g>
<g>
</g>
<g>
</g>
<g>
</g>
<g>
</g>
<g>
</g>
<g>
</g>
<g>
</g>
<g>
</g>
<g>
</g>
</svg>
